<mxfile host="app.diagrams.net" modified="2021-10-17T12:31:15.256Z" agent="5.0 (Windows NT 10.0; Win64; x64) AppleWebKit/537.36 (KHTML, like Gecko) Chrome/94.0.4606.81 Safari/537.36" etag="yeJmo_o9j1UumSbX-dFs" version="14.9.2" type="github">
  <diagram id="bdzbt-g8JPdHo-bGyaI7" name="Page-1">
    <mxGraphModel dx="868" dy="450" grid="1" gridSize="10" guides="1" tooltips="1" connect="1" arrows="1" fold="1" page="1" pageScale="1" pageWidth="827" pageHeight="1169" math="0" shadow="0">
      <root>
        <mxCell id="0" />
        <mxCell id="1" parent="0" />
        <mxCell id="OD_m54Y7WOQXO8dgCZ3U-2" value="" style="strokeWidth=2;html=1;shape=mxgraph.flowchart.annotation_2;align=left;labelPosition=right;pointerEvents=1;rotation=-180;" vertex="1" parent="1">
          <mxGeometry x="120" y="40" width="50" height="100" as="geometry" />
        </mxCell>
        <mxCell id="OD_m54Y7WOQXO8dgCZ3U-3" value="" style="strokeWidth=2;html=1;shape=mxgraph.flowchart.annotation_2;align=left;labelPosition=right;pointerEvents=1;rotation=-180;" vertex="1" parent="1">
          <mxGeometry x="120" y="180" width="50" height="100" as="geometry" />
        </mxCell>
        <mxCell id="OD_m54Y7WOQXO8dgCZ3U-4" value="" style="strokeWidth=2;html=1;shape=mxgraph.flowchart.annotation_2;align=left;labelPosition=right;pointerEvents=1;rotation=-180;" vertex="1" parent="1">
          <mxGeometry x="120" y="310" width="50" height="100" as="geometry" />
        </mxCell>
        <mxCell id="OD_m54Y7WOQXO8dgCZ3U-5" value="" style="strokeWidth=2;html=1;shape=mxgraph.flowchart.annotation_2;align=left;labelPosition=right;pointerEvents=1;rotation=-180;" vertex="1" parent="1">
          <mxGeometry x="120" y="430" width="50" height="100" as="geometry" />
        </mxCell>
        <mxCell id="OD_m54Y7WOQXO8dgCZ3U-6" value="" style="strokeWidth=2;html=1;shape=mxgraph.flowchart.annotation_2;align=left;labelPosition=right;pointerEvents=1;rotation=-180;" vertex="1" parent="1">
          <mxGeometry x="120" y="560" width="50" height="100" as="geometry" />
        </mxCell>
        <mxCell id="OD_m54Y7WOQXO8dgCZ3U-7" value="" style="strokeWidth=2;html=1;shape=mxgraph.flowchart.annotation_2;align=left;labelPosition=right;pointerEvents=1;rotation=-180;" vertex="1" parent="1">
          <mxGeometry x="120" y="700" width="50" height="100" as="geometry" />
        </mxCell>
        <mxCell id="OD_m54Y7WOQXO8dgCZ3U-8" value="5" style="text;html=1;align=center;verticalAlign=middle;resizable=0;points=[];autosize=1;strokeColor=none;" vertex="1" parent="1">
          <mxGeometry x="95" y="30" width="20" height="20" as="geometry" />
        </mxCell>
        <mxCell id="OD_m54Y7WOQXO8dgCZ3U-9" value="16" style="text;html=1;align=center;verticalAlign=middle;resizable=0;points=[];autosize=1;strokeColor=none;" vertex="1" parent="1">
          <mxGeometry x="90" y="130" width="30" height="20" as="geometry" />
        </mxCell>
        <mxCell id="OD_m54Y7WOQXO8dgCZ3U-10" value="8" style="text;html=1;align=center;verticalAlign=middle;resizable=0;points=[];autosize=1;strokeColor=none;" vertex="1" parent="1">
          <mxGeometry x="95" y="170" width="20" height="20" as="geometry" />
        </mxCell>
        <mxCell id="OD_m54Y7WOQXO8dgCZ3U-11" value="12" style="text;html=1;align=center;verticalAlign=middle;resizable=0;points=[];autosize=1;strokeColor=none;" vertex="1" parent="1">
          <mxGeometry x="90" y="270" width="30" height="20" as="geometry" />
        </mxCell>
        <mxCell id="OD_m54Y7WOQXO8dgCZ3U-12" value="10" style="text;html=1;align=center;verticalAlign=middle;resizable=0;points=[];autosize=1;strokeColor=none;" vertex="1" parent="1">
          <mxGeometry x="90" y="300" width="30" height="20" as="geometry" />
        </mxCell>
        <mxCell id="OD_m54Y7WOQXO8dgCZ3U-14" value="3" style="text;html=1;align=center;verticalAlign=middle;resizable=0;points=[];autosize=1;strokeColor=none;" vertex="1" parent="1">
          <mxGeometry x="100" y="400" width="20" height="20" as="geometry" />
        </mxCell>
        <mxCell id="OD_m54Y7WOQXO8dgCZ3U-16" value="2" style="text;html=1;align=center;verticalAlign=middle;resizable=0;points=[];autosize=1;strokeColor=none;" vertex="1" parent="1">
          <mxGeometry x="90" y="430" width="20" height="20" as="geometry" />
        </mxCell>
        <mxCell id="OD_m54Y7WOQXO8dgCZ3U-17" value="9" style="text;html=1;align=center;verticalAlign=middle;resizable=0;points=[];autosize=1;strokeColor=none;" vertex="1" parent="1">
          <mxGeometry x="90" y="520" width="20" height="20" as="geometry" />
        </mxCell>
        <mxCell id="OD_m54Y7WOQXO8dgCZ3U-18" value="4" style="text;html=1;align=center;verticalAlign=middle;resizable=0;points=[];autosize=1;strokeColor=none;" vertex="1" parent="1">
          <mxGeometry x="90" y="550" width="20" height="20" as="geometry" />
        </mxCell>
        <mxCell id="OD_m54Y7WOQXO8dgCZ3U-19" value="6" style="text;html=1;align=center;verticalAlign=middle;resizable=0;points=[];autosize=1;strokeColor=none;" vertex="1" parent="1">
          <mxGeometry x="90" y="650" width="20" height="20" as="geometry" />
        </mxCell>
        <mxCell id="OD_m54Y7WOQXO8dgCZ3U-20" value="" style="strokeWidth=2;html=1;shape=mxgraph.flowchart.annotation_2;align=left;labelPosition=right;pointerEvents=1;rotation=-180;" vertex="1" parent="1">
          <mxGeometry x="120" y="850" width="50" height="100" as="geometry" />
        </mxCell>
        <mxCell id="OD_m54Y7WOQXO8dgCZ3U-21" value="" style="strokeWidth=2;html=1;shape=mxgraph.flowchart.annotation_2;align=left;labelPosition=right;pointerEvents=1;rotation=-180;" vertex="1" parent="1">
          <mxGeometry x="120" y="990" width="50" height="100" as="geometry" />
        </mxCell>
        <mxCell id="OD_m54Y7WOQXO8dgCZ3U-22" value="14" style="text;html=1;align=center;verticalAlign=middle;resizable=0;points=[];autosize=1;strokeColor=none;" vertex="1" parent="1">
          <mxGeometry x="85" y="690" width="30" height="20" as="geometry" />
        </mxCell>
        <mxCell id="OD_m54Y7WOQXO8dgCZ3U-23" value="15" style="text;html=1;align=center;verticalAlign=middle;resizable=0;points=[];autosize=1;strokeColor=none;" vertex="1" parent="1">
          <mxGeometry x="85" y="790" width="30" height="20" as="geometry" />
        </mxCell>
        <mxCell id="OD_m54Y7WOQXO8dgCZ3U-24" value="1" style="text;html=1;align=center;verticalAlign=middle;resizable=0;points=[];autosize=1;strokeColor=none;" vertex="1" parent="1">
          <mxGeometry x="90" y="840" width="20" height="20" as="geometry" />
        </mxCell>
        <mxCell id="OD_m54Y7WOQXO8dgCZ3U-25" value="11" style="text;html=1;align=center;verticalAlign=middle;resizable=0;points=[];autosize=1;strokeColor=none;" vertex="1" parent="1">
          <mxGeometry x="85" y="930" width="30" height="20" as="geometry" />
        </mxCell>
        <mxCell id="OD_m54Y7WOQXO8dgCZ3U-26" value="7" style="text;html=1;align=center;verticalAlign=middle;resizable=0;points=[];autosize=1;strokeColor=none;" vertex="1" parent="1">
          <mxGeometry x="100" y="980" width="20" height="20" as="geometry" />
        </mxCell>
        <mxCell id="OD_m54Y7WOQXO8dgCZ3U-27" value="13" style="text;html=1;align=center;verticalAlign=middle;resizable=0;points=[];autosize=1;strokeColor=none;" vertex="1" parent="1">
          <mxGeometry x="95" y="1080" width="30" height="20" as="geometry" />
        </mxCell>
      </root>
    </mxGraphModel>
  </diagram>
</mxfile>
